{
    "accessors" : [
        {
            "bufferView" : 0,
            "componentType" : 5121,
            "count" : 426,
            "max" : [
                88
            ],
            "min" : [
                0
            ],
            "type" : "SCALAR"
        },
        {
            "bufferView" : 1,
            "componentType" : 5126,
            "count" : 89,
            "max" : [
                12.6297607421875,
                8.11857795715332,
                10.65717887878418
            ],
            "min" : [
                -12.629759788513184,
                -3.4878692626953125,
                -10.657177925109863
            ],
            "type" : "VEC3"
        },
        {
            "bufferView" : 2,
            "componentType" : 5126,
            "count" : 89,
            "max" : [
                0.9975280165672302,
                0.999420166015625,
                0.9032257795333862
            ],
            "min" : [
                -0.9500716924667358,
                -0.920926570892334,
                -0.9480269551277161
            ],
            "type" : "VEC3"
        },
        {
            "bufferView" : 3,
            "componentType" : 5126,
            "count" : 89,
            "max" : [
                0.9280787110328674,
                0.977756142616272,
                0.9963799118995667,
                1.0
            ],
            "min" : [
                -0.9642927050590515,
                -0.9682208299636841,
                -0.9162786602973938,
                1.0
            ],
            "type" : "VEC4"
        },
        {
            "bufferView" : 4,
            "componentType" : 5126,
            "count" : 89,
            "max" : [
                0.9822093844413757,
                0.8063673824071884
            ],
            "min" : [
                0.5275829434394836,
                0.023997724056243896
            ],
            "type" : "VEC2"
        },
        {
            "bufferView" : 5,
            "componentType" : 5126,
            "count" : 89,
            "max" : [
                0.9822093844413757,
                0.8063673824071884
            ],
            "min" : [
                0.5275829434394836,
                0.023997724056243896
            ],
            "type" : "VEC2"
        }
    ],
    "asset" : {
        "generator" : "Khronos Blender glTF 2.0 exporter",
        "version" : "2.0"
    },
    "bufferViews" : [
        {
            "buffer" : 0,
            "byteLength" : 426,
            "byteOffset" : 0,
            "target" : 34963
        },
        {
            "buffer" : 0,
            "byteLength" : 1068,
            "byteOffset" : 428,
            "target" : 34962
        },
        {
            "buffer" : 0,
            "byteLength" : 1068,
            "byteOffset" : 1496,
            "target" : 34962
        },
        {
            "buffer" : 0,
            "byteLength" : 1424,
            "byteOffset" : 2564,
            "target" : 34962
        },
        {
            "buffer" : 0,
            "byteLength" : 712,
            "byteOffset" : 3988,
            "target" : 34962
        },
        {
            "buffer" : 0,
            "byteLength" : 712,
            "byteOffset" : 4700,
            "target" : 34962
        }
    ],
    "buffers" : [
        {
            "byteLength" : 5412,
            "uri" : "Rock.bin"
        }
    ],
    "materials" : [
        {
            "name" : "Material #9",
            "pbrMetallicRoughness" : {
                "baseColorFactor" : [
                    0.4704000066280365,
                    0.4704000066280365,
                    0.4704000066280365,
                    1.0
                ],
                "metallicFactor" : 0.0
            }
        }
    ],
    "meshes" : [
        {
            "name" : "Untitled.002",
            "primitives" : [
                {
                    "attributes" : {
                        "NORMAL" : 2,
                        "POSITION" : 1,
                        "TANGENT" : 3,
                        "TEXCOORD_0" : 4,
                        "TEXCOORD_1" : 5
                    },
                    "indices" : 0,
                    "material" : 0
                }
            ]
        }
    ],
    "nodes" : [
        {
            "mesh" : 0,
            "name" : "Rock03",
            "rotation" : [
                -2.1855694143368964e-08,
                8.742277657347586e-08,
                -1.910685465164705e-15,
                1.0
            ],
            "scale" : [
                0.009999999776482582,
                0.009999999776482582,
                0.009999999776482582
            ]
        }
    ],
    "scene" : 0,
    "scenes" : [
        {
            "name" : "Scene",
            "nodes" : [
                0
            ]
        }
    ]
}
